<svg width="24" height="24" viewBox="0 0 24 24" fill="none" xmlns="http://www.w3.org/2000/svg"><rect width="24" height="24" fill="none" rx="0" ry="0"></rect><path fill-rule="evenodd" clip-rule="evenodd" d="M19.9164 8.42909C20.0264 8.85909 20.1864 9.59909 20.1864 10.1691C20.1864 12.0791 19.1164 13.7991 17.4864 14.6791C17.1764 14.3891 16.8964 14.0791 16.6364 13.7591C18.0364 13.1391 18.9864 11.7391 18.9864 10.1691C18.9864 9.61909 18.7664 8.72909 18.6764 8.42909C18.6164 8.20909 18.6764 7.96909 18.8464 7.81909C19.7264 7.00909 19.6064 5.71909 19.4664 5.04909C18.8064 5.12909 17.6264 5.38909 17.1464 6.23909C16.9964 6.48909 16.6864 6.60909 16.4164 6.50909C15.9464 6.32909 15.5064 6.24909 15.0664 6.24909H13.7364C13.6664 5.81909 13.6264 5.41909 13.5964 5.04909H15.0664C15.5064 5.04909 15.9464 5.10909 16.3864 5.23909C17.5464 3.83909 19.8164 3.81909 19.9164 3.81909C20.1764 3.81909 20.4064 3.97909 20.4864 4.21909C20.5264 4.32909 21.3564 6.76909 19.9164 8.42909Z" fill="#22a6b3"></path><path fill-rule="evenodd" clip-rule="evenodd" d="M16.7864 14.9891C17.0264 14.8991 17.2664 14.7991 17.4864 14.6791C17.1764 14.3891 16.8964 14.0791 16.6364 13.7591C16.3964 13.8691 16.1564 13.9491 15.8964 13.9991C15.8064 14.0191 15.7164 14.0591 15.6464 14.1191C15.5764 14.1791 15.5264 14.2391 15.4864 14.3191C15.3964 14.4791 15.3964 14.6791 15.4764 14.8391C15.5864 15.0891 15.6464 15.3391 15.6464 15.5891V19.2691C15.6464 19.2991 15.5764 19.4391 15.2464 19.6091C14.2664 20.1291 12.6064 20.1891 12.2364 19.9891C12.1064 19.7891 11.8664 19.6891 11.6264 19.7391C11.3364 19.7891 10.2964 19.8491 9.87643 19.8491C9.19643 19.8491 8.66643 19.6891 8.30643 19.3791C7.90643 19.0291 7.68643 18.4791 7.43643 17.8391C7.04643 16.8791 6.67643 15.9591 5.84643 16.0691C5.69643 16.0791 5.54642 16.0391 5.42642 15.9391C5.29642 15.8391 5.21642 15.6891 5.20642 15.5291C5.18642 15.3591 5.23642 15.2091 5.33642 15.0891C5.43642 14.9591 5.58643 14.8891 5.74643 14.8691C7.00643 14.7391 7.94644 15.5891 8.53644 17.3591C9.12644 19.1491 10.8664 18.6991 11.4464 18.5491L11.6064 18.5091C11.8864 18.4491 12.0764 18.2091 12.0764 17.9291V15.5891C12.0764 15.3391 12.1364 15.0891 12.2464 14.8391C12.3264 14.6791 12.3264 14.4791 12.2464 14.3191C12.1664 14.1591 12.0164 14.0391 11.8364 13.9991C10.0364 13.6091 8.73642 11.9991 8.73642 10.1691C8.73642 9.66909 9.00641 8.75909 9.10641 8.44909C9.17641 8.21909 9.11643 7.97909 8.93643 7.81909C8.06643 7.01909 8.18641 5.72909 8.32641 5.04909C8.97641 5.12909 10.1564 5.38909 10.6364 6.22909C10.7764 6.47909 11.0864 6.58909 11.3564 6.48909C11.8164 6.32909 12.2364 6.24909 12.6564 6.24909H13.7364C13.6664 5.81909 13.6264 5.41909 13.5964 5.04909H12.5864C12.1864 5.05909 11.8064 5.11909 11.3964 5.21909C10.8064 4.52909 9.95642 4.17909 9.23642 3.99909C8.50642 3.82909 7.92642 3.81909 7.86642 3.81909C7.61642 3.81909 7.38643 3.97909 7.30643 4.21909C7.26643 4.32909 6.43641 6.75909 7.85641 8.41909C7.72641 8.85909 7.53644 9.60909 7.53644 10.1691C7.53644 12.3391 8.93641 14.2691 10.9464 14.9891C10.8964 15.1891 10.8764 15.3891 10.8764 15.5891V17.4491C10.1264 17.6091 9.83642 17.4891 9.67642 16.9791C8.68642 14.0191 6.93641 13.5491 5.63641 13.6791C5.15641 13.7191 4.71641 13.9491 4.41641 14.3191C4.10641 14.6891 3.96644 15.1591 4.00644 15.6391C4.05644 16.1191 4.28641 16.5591 4.66641 16.8691C4.99641 17.1391 5.40642 17.2891 5.83642 17.2691C5.91642 17.3791 6.05643 17.6491 6.31643 18.2891C6.60643 19.0091 6.90642 19.7491 7.51642 20.2791C8.10642 20.7891 8.89643 21.0491 9.87643 21.0491C10.1764 21.0491 10.9964 21.0191 11.5264 20.9591C11.8864 21.2191 12.4364 21.2891 12.9664 21.2891C13.7664 21.2891 14.5364 21.1191 14.5964 21.0991C16.0464 20.7591 16.8464 20.1091 16.8464 19.2691V15.5891C16.8464 15.5391 16.8464 15.4891 16.8364 15.4391C16.8364 15.2891 16.8164 15.1391 16.7864 14.9891Z" fill="#FFFAF0"></path><path fill-rule="evenodd" clip-rule="evenodd" d="M13.0964 20.2091C13.0464 20.1691 12.9864 20.1291 12.9364 20.0891C12.6164 20.0891 12.3564 20.0491 12.2364 19.9891C12.1064 19.7891 11.8664 19.6891 11.6264 19.7391C11.3364 19.7891 10.2964 19.8491 9.87643 19.8491C9.19643 19.8491 8.66643 19.6891 8.30643 19.3791C7.90643 19.0291 7.68643 18.4791 7.43643 17.8391C7.04643 16.8791 6.67643 15.9591 5.84643 16.0691C5.69643 16.0791 5.54642 16.0391 5.42642 15.9391C5.29642 15.8391 5.21642 15.6891 5.20642 15.5291C5.18642 15.3591 5.23642 15.2091 5.33642 15.0891C5.43642 14.9591 5.58643 14.8891 5.74643 14.8691C7.00643 14.7391 7.94644 15.5891 8.53644 17.3591C9.12644 19.1391 10.8364 18.7091 11.4364 18.5491C11.1764 18.2091 10.9264 17.8591 10.7064 17.4691C10.0964 17.5691 9.82642 17.4391 9.67642 16.9791C8.68642 14.0191 6.93641 13.5491 5.63641 13.6791C5.15641 13.7191 4.71641 13.9491 4.41641 14.3191C4.10641 14.6891 3.96644 15.1591 4.00644 15.6391C4.05644 16.1191 4.28641 16.5591 4.66641 16.8691C4.99641 17.1391 5.40642 17.2891 5.83642 17.2691C5.91642 17.3791 6.05643 17.6491 6.31643 18.2891C6.60643 19.0091 6.90642 19.7491 7.51642 20.2791C8.10642 20.7891 8.89643 21.0491 9.87643 21.0491C10.1764 21.0491 10.9964 21.0191 11.5264 20.9591C11.8864 21.2191 12.4364 21.2891 12.9664 21.2891C13.2064 21.2891 13.4364 21.2691 13.6464 21.2491C13.4464 20.9191 13.2564 20.5791 13.0964 20.2091Z" fill="#22a6b3" fill-opacity="0.9"></path></svg>