<svg width="24" height="24" viewBox="0 0 24 24" fill="none" xmlns="http://www.w3.org/2000/svg"><rect width="24" height="24" fill="none" rx="0" ry="0"></rect><path fill-rule="evenodd" clip-rule="evenodd" d="M18.035 21.3792H5.965C4.425 21.3792 3.17499 20.1292 3.17499 18.5892V6.51925C3.17499 4.97925 4.425 3.72925 5.965 3.72925H18.035C19.575 3.72925 20.825 4.97925 20.825 6.51925V18.5892C20.825 20.1292 19.575 21.3792 18.035 21.3792ZM5.97499 4.92925C5.09499 4.92925 4.38499 5.63925 4.38499 6.51925V18.5892C4.38499 19.4692 5.09499 20.1792 5.97499 20.1792H18.045C18.925 20.1792 19.635 19.4692 19.635 18.5892V6.51925C19.635 5.63925 18.925 4.92925 18.045 4.92925H5.97499Z" fill="#22a6b3"></path><path fill-rule="evenodd" clip-rule="evenodd" d="M7.79504 9.03931C8.34733 9.03931 8.79504 8.59159 8.79504 8.03931C8.79504 7.48702 8.34733 7.03931 7.79504 7.03931C7.24276 7.03931 6.79504 7.48702 6.79504 8.03931C6.79504 8.59159 7.24276 9.03931 7.79504 9.03931ZM7.79504 10.2393C7.24504 10.2393 6.79504 10.6893 6.79504 11.2393V17.0793C6.79504 17.6293 7.24504 18.0793 7.79504 18.0793C8.34504 18.0793 8.79504 17.6293 8.79504 17.0793V11.2393C8.79504 10.6893 8.34504 10.2393 7.79504 10.2393ZM12.485 11.4593C13.275 10.9193 14.175 10.4393 14.955 10.4393C17.215 10.4693 17.215 12.5192 17.215 13.4093V13.4093V17.0893C17.215 17.6393 16.765 18.0893 16.215 18.0893C15.665 18.0893 15.215 17.6393 15.215 17.0893V13.4093C15.215 12.8993 15.185 12.5793 15.135 12.4493C15.1286 12.4493 15.1191 12.4482 15.1062 12.4468C15.0788 12.4439 15.0361 12.4393 14.975 12.4393C14.525 12.4393 13.375 13.2193 12.485 14.0093V17.0793C12.485 17.6293 12.035 18.0793 11.485 18.0793C10.935 18.0793 10.485 17.6293 10.485 17.0793V11.2393C10.485 10.6893 10.935 10.2393 11.485 10.2393C12.035 10.2393 12.485 10.6893 12.485 11.2393V11.4593Z" fill="#FFFAF0"></path><path fill-rule="evenodd" clip-rule="evenodd" d="M14.955 10.4392C14.175 10.4392 13.275 10.9192 12.485 11.4592C12.485 8.85275 12.485 16.6187 12.485 14.0092C13.375 13.2192 14.525 12.4392 14.975 12.4392C15.065 12.4392 15.115 12.4492 15.135 12.4492C15.185 12.5792 15.215 12.8992 15.215 13.4092V17.0892C15.215 17.6392 15.665 18.0892 16.215 18.0892C16.765 18.0892 17.215 17.6392 17.215 17.0892V13.4092C17.215 12.5192 17.215 10.4692 14.955 10.4392Z" fill="#22a6b3" fill-opacity="0.9"></path></svg>