<svg width="580" height="477" viewBox="0 0 580 477" fill="none" xmlns="http://www.w3.org/2000/svg">
<path d="M221.235 477L191.397 344H199.628L230.495 477H221.235Z" fill="#F1F1F1"/>
<path d="M161.559 344H152.299L137.895 477H148.183L161.559 344Z" fill="#F1F1F1"/>
<path d="M211.371 334H144.94V348H211.371V334Z" fill="#7D8CA6"/>
<path d="M152.747 155.021C142.822 146.803 138.273 133.107 137.239 127.286C155.848 99.5519 185.832 112.906 182.73 140.64C181.584 150.887 178.886 156.927 175.313 159.953C175.373 162.075 176.94 167.141 182.73 170.428C189.968 174.536 203.408 174.536 212.713 178.645C222.019 182.754 243.73 272.119 244.764 278.283C245.798 284.446 240.628 292.663 233.391 285.473C226.154 278.283 208.577 213.57 199.273 219.733C189.968 225.896 131.036 207.406 132.069 213.57C133.103 219.733 113.46 253.63 117.594 253.63C121.73 253.63 198.238 260.82 208.577 260.82C218.916 260.82 227.188 278.283 227.188 285.473C227.188 292.663 212.713 282.391 208.577 278.283C204.443 274.174 113.46 279.31 98.9847 272.119C84.5098 264.929 110.357 200.216 113.46 190.971C116.561 181.727 118.629 178.645 140.341 178.645C157.71 178.645 160.674 166.183 159.984 159.953C157.56 158.68 155.116 156.981 152.747 155.021Z" fill="#EDC7C5"/>
<path d="M236.658 351.213C236.658 364.361 243.077 437 248.715 457.014C250.626 468.5 268.24 473.435 277.299 470C279.741 469.074 261.454 455.873 262.704 455C256.156 421.787 265.401 355.117 264.573 346.077C263.54 334.778 236.658 334.778 236.658 351.213Z" fill="#EDC7C5"/>
<path d="M294.912 338C298.938 379 297.429 424.5 300.776 439C304.125 453.5 315.935 463.053 313.03 462.5C303.468 462 293.402 458 289.88 446.5C281.526 419.231 276.795 380.5 268.239 349.5C268.239 337.995 288.364 334.918 294.912 338Z" fill="#EDC7C5"/>
<path fill-rule="evenodd" clip-rule="evenodd" d="M123.803 179C125.526 192.696 129.52 220.657 134.483 232.161C135.97 235.608 138.228 239.526 140.661 243.747C148.379 257.137 157.853 273.571 149.991 287.63C139.652 306.119 133.658 317.922 145.856 337.962C151.482 347.207 213.118 353 226.469 353C233.601 353 234.436 358.313 235.198 363.159C235.511 365.152 235.812 367.066 236.534 368.5C239.299 373.993 257.711 366.929 273.991 359.5C280.672 356.451 286.994 353.341 291.728 351.012C294.356 349.719 296.494 348.667 297.932 348C297.728 345.769 297.701 343.804 297.676 342.003C297.58 334.925 297.517 330.363 286.86 322C278.573 315.498 259.528 306.976 247.151 301.438C242.12 299.187 238.191 297.429 236.534 296.5C202.641 277.495 205.231 257.549 207.736 238.253C209.103 227.725 210.446 217.39 205.822 207.509C203.704 202.984 204.581 192.258 205.289 183.581C205.522 180.737 205.736 178.113 205.822 176L197.783 175C197.438 186.299 192.794 207.509 177.907 207.509C159.296 207.509 141.078 207.261 134.875 178.5C130.848 179 127.829 179 123.803 179ZM288.767 443.281C287.653 446.22 284.963 453.319 287.363 456.5C290.466 460.608 317.559 469.815 317.056 465.408C316.553 461 311.52 456.5 309.507 456.5C308.527 456.5 307.666 457.092 306.867 457.643C306.023 458.223 305.249 458.757 304.474 458.5C304.474 458.5 296.199 453.037 293.906 450C292.489 448.123 291.626 446.796 290.953 445.762C290.192 444.592 289.674 443.796 288.873 443L288.767 443.281ZM247.144 459.875C245.892 463.993 244.805 467.569 247.419 469.516C251.555 472.598 264.717 473.408 273.622 473.408C275.69 473.408 295.416 471.5 275.788 465.408C273.647 464.743 267.233 468 267.233 468C267.233 468 258.677 464 255.658 462C254.105 460.971 252.626 459.756 251.378 458.731V458.73C249.848 457.473 248.663 456.5 248.109 456.5C247.82 457.649 247.476 458.781 247.144 459.875Z" fill="#E47171"/>
<path opacity="0.2" d="M134.483 232.161C129.52 220.657 125.526 192.696 123.803 179C127.829 179 130.848 179 134.875 178.5C141.078 207.261 159.296 207.509 177.907 207.509C192.794 207.509 197.438 186.299 197.783 175L205.822 176C205.476 184.56 203.01 201.501 205.822 207.509C218.92 235.5 184.147 267.126 236.534 296.5C242.267 299.714 275.206 312.855 286.86 322C300.23 332.491 296.925 337 297.932 348C287.593 352.794 241.063 377.5 236.534 368.5C234.058 363.581 236.534 353 226.469 353C213.118 353 151.482 347.207 145.856 337.962C133.658 317.922 139.652 306.119 149.991 287.63C160.33 269.14 140.686 246.542 134.483 232.161Z" fill="#EE7E79"/>
<g opacity="0.2">
<path opacity="0.2" d="M247.419 469.516C244.111 467.051 246.731 461.978 248.109 456.5C249.115 456.5 252.202 459.711 255.658 462C258.677 464 267.233 468 267.233 468C267.233 468 273.648 464.743 275.788 465.408C295.416 471.5 275.69 473.408 273.623 473.408C264.716 473.408 251.555 472.598 247.419 469.516Z" fill="#D07878"/>
<path opacity="0.2" d="M287.363 456.5C284.882 453.213 287.839 445.739 288.873 443C290.383 444.5 290.886 446 293.906 450C296.198 453.037 304.474 458.5 304.474 458.5C305.984 459 307.494 456.5 309.507 456.5C311.52 456.5 316.552 461 317.056 465.408C317.559 469.815 290.465 460.608 287.363 456.5Z" fill="#D07878"/>
</g>
<path d="M163.432 121.225C159.296 124.512 146.545 126.018 140.687 126.361C148.957 138.688 142.754 152.039 136.551 141.768C130.347 131.496 133.449 119.17 140.687 109.925C143.236 106.668 147.839 104.941 153.093 104.609C151.026 102.615 147.51 97.3929 149.991 92.4619C153.093 86.2989 161.364 82.1899 163.432 87.3259C165.499 92.4619 173.771 92.6429 171.703 98.6259C170.049 103.413 168.16 106.099 167.422 106.844C172.559 108.776 177.163 111.898 179.974 116.088C186.484 125.789 182.854 142.248 180.11 149.626C180.062 149.76 180.017 149.879 179.974 149.986C180.02 149.868 180.065 149.749 180.11 149.626C180.829 147.612 182.042 142.542 182.042 135.605C182.042 126.361 168.602 117.116 163.432 121.225Z" fill="#FFCB56" fill-opacity="0.83"/>
<path d="M180.05 273.653C175.915 269.544 107.075 278.68 92.6006 271.489L111.21 253C115.346 253 169.711 256.19 180.05 256.19C190.389 256.19 198.66 273.653 198.66 280.843C198.66 288.033 184.186 277.761 180.05 273.653Z" fill="#EDC7C5"/>
<path d="M35.2285 278.03V262H411.67V278.03H392.406V296.464H369.932H360.301H347.458H337.826H119.506H111.48H97.0323H87.4009H64.1239V278.03H35.2285Z" fill="#C4C4C4"/>
<path d="M35.2285 278.03V262H411.67V278.03H392.406H64.1239H35.2285Z" fill="#4B5361"/>
<path d="M63.4111 475.536L86.6881 296H96.3196H110.767H118.793H337.114H346.746H359.588H369.219L398.115 475.536H388.483L359.588 296H346.746L325.876 475.536H316.245L337.114 296H118.793L149.294 475.536H139.663L110.767 296H96.3196L73.8458 475.536H63.4111Z" fill="#4B5361"/>
<path d="M398.585 102H173.123V238H398.585V102Z" fill="#F1F1F1" fill-opacity="0.7"/>
<path d="M305.985 238H262.704V262H305.985V238Z" fill="#F1F1F1"/>
<path d="M579.95 141.251C554.106 132.125 528.185 138.222 518.455 142.411C520.946 139.317 519.493 101.164 518.455 82.4751L573.139 84.7951C576.564 92.0641 579.106 125.461 579.95 141.251Z" fill="#22B3B3"/>
<path d="M502.281 198.257C495.586 201.659 460.052 199.675 443.121 198.257L440.007 146.634L492.355 141.027C498.895 146.286 501.697 181.371 502.281 198.257Z" fill="#22B3B3"/>
<path d="M571.093 217.704C567.824 214.765 535.09 213.515 519.133 213.257L516.214 157.188L573.428 159.894C577.787 173.506 573.688 204.105 571.093 217.704Z" fill="#22B3B3"/>
<path d="M353.317 85.477L417.926 88.184C419.794 78.594 414.294 45.907 411.309 30.762L353.317 28.635V85.477Z" fill="#22B3B3"/>
<path opacity="0.2" d="M348.259 84.3159V23.9929L412.868 25.9269C415.203 49.7079 412.478 76.1959 402.942 82.3829C395.314 87.3319 363.308 85.7339 348.259 84.3159Z" fill="#DAE4FA"/>
<path opacity="0.2" d="M496.637 136.376L436.114 124.195L445.261 69.093L499.36 77.406L496.637 136.376Z" fill="#22B3B3"/>
<path d="M380.952 24.96C379.017 24.96 377.449 23.402 377.449 21.48C377.449 19.558 379.017 18 380.952 18C382.887 18 384.455 19.558 384.455 21.48C384.455 22.995 383.48 24.285 382.12 24.762L381.731 26.7L380.952 24.96Z" fill="#EE7E79"/>
<path d="M386.142 28.7237C387.934 29.4486 389.682 29.3147 390.047 28.4247C390.411 27.5346 389.255 26.2255 387.463 25.5005C385.671 24.7756 383.923 24.9095 383.558 25.7996C383.193 26.6896 384.35 27.9988 386.142 28.7237Z" fill="#C4B7B6"/>
<path opacity="0.2" d="M482.127 64.189V5.21997H544.401C545.243 17.723 546.424 43.308 544.401 45.628C541.87 48.528 531.362 61.289 524.94 64.189H482.127Z" fill="#DAE4FA"/>
<path d="M539.34 62.836C532.023 67.476 500.224 63.2231 485.24 60.5161C486.797 53.0921 485.888 23.008 485.24 8.89404H543.427C544.789 19.334 548.486 57.036 539.34 62.836Z" fill="#22B3B3"/>
<path d="M524.939 64.1889C531.361 61.2889 541.87 48.5279 544.4 45.6279C538.328 46.5559 532.918 46.0149 530.973 45.6279C530.973 52.8979 526.95 61.0309 524.939 64.1889Z" fill="#C4C4C4"/>
<path d="M515.403 6.96C513.469 6.96 511.9 5.402 511.9 3.48C511.9 1.558 513.469 0 515.403 0C517.338 0 518.906 1.558 518.906 3.48C518.906 4.995 517.932 6.285 516.571 6.762L516.182 8.7L515.403 6.96Z" fill="#EE7E79"/>
<path d="M520.595 10.7237C522.387 11.4486 524.135 11.3147 524.5 10.4247C524.865 9.53463 523.708 8.22545 521.916 7.50055C520.124 6.77564 518.376 6.90952 518.011 7.79957C517.646 8.68962 518.803 9.9988 520.595 10.7237Z" fill="#C4B7B6"/>
<path opacity="0.2" d="M439.424 201.736L432.807 143.734L493.523 136.58C499.439 162.411 499.361 185.753 498.583 194.196C492.356 198.372 456.549 200.963 439.424 201.736Z" fill="#DAE4FA"/>
<path d="M462.192 142.96C460.258 142.96 458.689 141.402 458.689 139.48C458.689 137.558 460.258 136 462.192 136C464.127 136 465.695 137.558 465.695 139.48C465.695 140.995 464.721 142.285 463.36 142.762L462.97 144.7L462.192 142.96Z" fill="#EE7E79"/>
<path d="M467.382 146.724C469.174 147.449 470.922 147.315 471.287 146.425C471.652 145.535 470.495 144.225 468.703 143.501C466.911 142.776 465.163 142.91 464.798 143.8C464.434 144.69 465.59 145.999 467.382 146.724Z" fill="#C4B7B6"/>
<path d="M75.1087 185.29C61.6162 190.116 25.2605 185.811 8.76953 183.056C13.0875 176.085 10.5682 135.02 8.76953 115.359L73.5345 120.051L75.1087 185.29Z" fill="#22B3B3"/>
<path opacity="0.2" d="M0 175.121C5.21683 166.721 6.22136 128.874 6.07139 111L75.559 115.915C74.8091 133.342 72.9954 169.893 71.7362 176.685C71.1534 179.829 70.6119 180.19 70.162 179.28C57.9287 181.356 18.2906 177.373 0 175.121Z" fill="#DAE4FA"/>
<path d="M39.8031 118.488C37.5676 118.488 35.7549 116.688 35.7549 114.467C35.7549 112.246 37.5676 110.445 39.8031 110.445C42.0386 110.445 43.8514 112.246 43.8514 114.467C43.8514 116.218 42.7241 117.708 41.1529 118.26L40.703 120.499L39.8031 118.488Z" fill="#EE7E79"/>
<path d="M45.8013 122.837C47.8718 123.675 49.8919 123.52 50.3135 122.492C50.7351 121.463 49.3984 119.95 47.328 119.113C45.2575 118.275 43.2373 118.43 42.8158 119.458C42.3942 120.487 43.7309 122 45.8013 122.837Z" fill="#C4B7B6"/>
<path d="M64.9372 126.585H14.2217V130.053H64.9372V126.585Z" stroke="#8A6564"/>
<path d="M64.9372 136.862H14.2217V140.33H64.9372V136.862Z" stroke="#8A6564"/>
<path d="M24.0622 147.981H13.7178V160.492H24.0622V147.981Z" fill="#C4C4C4"/>
<path d="M42.9518 147.981H32.6074V160.492H42.9518V147.981Z" fill="#C4C4C4"/>
<path d="M61.8415 147.981H51.4971V160.492H61.8415V147.981Z" fill="#C4C4C4"/>
<path d="M69.0377 173.673L0 175.46C18.2906 177.711 57.9287 181.695 70.162 179.619C69.6396 178.563 69.239 175.793 69.0377 173.673Z" fill="#C4C4C4"/>
<path opacity="0.2" d="M512.322 215.383L513.49 153.9L574.596 155.06C574.336 168.981 573.428 197.441 571.871 199.916C569.925 203.009 567.59 211.71 561.558 215.383H512.322Z" fill="#DAE4FA"/>
<path d="M545.21 157.96C543.275 157.96 541.707 156.402 541.707 154.48C541.707 152.558 543.275 151 545.21 151C547.145 151 548.714 152.558 548.714 154.48C548.714 155.995 547.738 157.285 546.378 157.762L545.989 159.7L545.21 157.96Z" fill="#EE7E79"/>
<path d="M550.402 161.724C552.193 162.449 553.942 162.315 554.306 161.425C554.671 160.535 553.514 159.225 551.723 158.501C549.931 157.776 548.183 157.91 547.818 158.8C547.453 159.69 548.61 160.999 550.402 161.724Z" fill="#C4B7B6"/>
<path d="M566.892 165.808H523.14V168.675H566.892V165.808Z" stroke="#8A6564"/>
<path d="M566.892 174.7H523.14V177.567H566.892V174.7Z" stroke="#8A6564"/>
<path d="M531.589 184.255H522.637V195.082H531.589V184.255Z" fill="#C4C4C4"/>
<path d="M547.935 184.255H538.983V195.082H547.935V184.255Z" fill="#C4C4C4"/>
<path d="M564.282 184.255H555.33V195.082H564.282V184.255Z" fill="#C4C4C4"/>
<path opacity="0.2" d="M576.642 135.257C571.193 137.731 533.505 137.319 515.342 136.803C517.988 132.472 516.445 95.428 515.342 77.447H575.669C576.447 82.087 576.642 117.92 576.642 135.257Z" fill="#DAE4FA"/>
<path d="M549.593 79.96C547.658 79.96 546.09 78.402 546.09 76.48C546.09 74.558 547.658 73 549.593 73C551.527 73 553.095 74.558 553.095 76.48C553.095 77.995 552.121 79.285 550.76 79.762L550.371 81.7L549.593 79.96Z" fill="#EE7E79"/>
<path d="M554.782 83.7237C556.574 84.4486 558.322 84.3147 558.687 83.4247C559.052 82.5346 557.895 81.2255 556.104 80.5005C554.312 79.7756 552.564 79.9095 552.199 80.7996C551.834 81.6896 552.991 82.9988 554.782 83.7237Z" fill="#C4B7B6"/>
<path d="M537.527 89.24H528.575V100.067H537.527V89.24Z" fill="#C4C4C4"/>
<path d="M569.717 93.6069H544.646V95.7004H569.717V93.6069Z" stroke="#8A6564"/>
<path d="M570.61 109.735H553.096V130.229H570.61V109.735Z" fill="#C4C4C4"/>
<path d="M127.1 87.93C111.629 89.36 76.8778 97.016 61.4366 100.665C64.8548 91.55 57.7628 53.821 53.79 36.097L113.158 24.926C115.137 30.467 123.278 69.237 127.1 87.93Z" fill="#22B3B3" fill-opacity="0.42"/>
<path opacity="0.2" d="M54.0158 94.186L41.873 29.394L112.709 18C114.688 22.468 118.781 61.418 120.58 80.334C117.522 78.011 74.9294 88.601 54.0158 94.186Z" fill="#DAE4FA"/>
<path d="M79.4271 26.2671C77.1916 26.2671 75.3799 24.4661 75.3799 22.2451C75.3799 20.0241 77.1916 18.2241 79.4271 18.2241C81.6626 18.2241 83.4754 20.0241 83.4754 22.2451C83.4754 23.9961 82.3491 25.4861 80.7769 26.0381L80.327 28.2781L79.4271 26.2671Z" fill="#EE7E79"/>
<path d="M85.4244 30.6134C87.4948 31.4511 89.515 31.2964 89.9366 30.2679C90.3582 29.2393 89.0215 27.7265 86.951 26.8888C84.8806 26.0511 82.8604 26.2059 82.4388 27.2344C82.0172 28.2629 83.3539 29.7757 85.4244 30.6134Z" fill="#C4B7B6"/>
<path d="M107.39 31.9893L59.3486 41.459L59.5948 42.6917L107.637 33.222L107.39 31.9893Z" stroke="#8A6564"/>
<path d="M108.271 38.0265L60.2295 47.4961L60.4756 48.7288L108.518 39.2591L108.271 38.0265Z" stroke="#8A6564"/>
<path d="M110.07 44.7284L62.0283 54.198L62.2745 55.4307L110.316 45.961L110.07 44.7284Z" stroke="#8A6564"/>
<path opacity="0.2" d="M432.807 122.456L442.731 66L502.475 75.087L492.55 131.543L432.807 122.456Z" fill="#DAE4FA"/>
<path d="M472.312 74.313C470.378 74.313 468.81 72.755 468.81 70.833C468.81 68.911 470.378 67.353 472.312 67.353C474.247 67.353 475.815 68.911 475.815 70.833C475.815 72.348 474.84 73.637 473.48 74.115L473.09 76.053L472.312 74.313Z" fill="#EE7E79"/>
<path d="M477.501 78.0755C479.293 78.8004 481.041 78.6665 481.406 77.7765C481.771 76.8864 480.614 75.5773 478.822 74.8524C477.031 74.1274 475.282 74.2613 474.918 75.1514C474.553 76.0414 475.709 77.3506 477.501 78.0755Z" fill="#C4B7B6"/>
<path d="M490.24 89.2387L447.986 87.9639L447.956 88.9399L490.21 90.2147L490.24 89.2387Z" stroke="#8A6564" stroke-width="0.976447"/>
<path d="M489.802 94.4989L447.549 93.2241L447.519 94.2001L489.772 95.4749L489.802 94.4989Z" stroke="#8A6564" stroke-width="0.976447"/>
<path d="M490.01 100.499L447.757 99.2241L447.727 100.2L489.98 101.475L490.01 100.499Z" stroke="#8A6564" stroke-width="0.976447"/>
</svg>
