<svg width="24" height="24" viewBox="0 0 24 24" fill="none" xmlns="http://www.w3.org/2000/svg"><rect width="24" height="24" fill="none" rx="0" ry="0"></rect><path fill-rule="evenodd" clip-rule="evenodd" d="M18.035 21.7582H5.96505C4.42505 21.7582 3.17505 20.5082 3.17505 18.9682V6.89815C3.17505 5.35815 4.42505 4.10815 5.96505 4.10815H18.035C19.575 4.10815 20.825 5.35815 20.825 6.89815V18.9682C20.825 20.5082 19.575 21.7582 18.035 21.7582ZM5.96505 5.30815C5.08505 5.30815 4.37505 6.01815 4.37505 6.89815V18.9682C4.37505 19.8482 5.08505 20.5582 5.96505 20.5582H18.035C18.915 20.5582 19.625 19.8482 19.625 18.9682V6.89815C19.625 6.01815 18.915 5.30815 18.035 5.30815H5.96505Z" fill="#22a6b3"></path><path fill-rule="evenodd" clip-rule="evenodd" d="M17.305 9.64817C16.915 9.81817 16.485 9.93817 16.055 9.98817C16.505 9.71817 16.855 9.29817 17.015 8.78817C16.595 9.03817 16.125 9.21817 15.635 9.31817C15.235 8.88817 14.665 8.62817 14.045 8.62817C12.845 8.62817 11.865 9.60817 11.865 10.8082C11.865 10.9782 11.875 11.1482 11.915 11.3082C10.105 11.2182 8.505 10.3482 7.425 9.02817C7.235 9.35817 7.125 9.72817 7.125 10.1282C7.125 10.8782 7.515 11.5482 8.095 11.9382C7.745 11.9282 7.405 11.8282 7.115 11.6682C7.115 11.6782 7.115 11.6882 7.115 11.6882C7.115 12.7482 7.865 13.6282 8.855 13.8282C8.675 13.8782 8.485 13.8982 8.285 13.8982C8.145 13.8982 8.005 13.8882 7.875 13.8582C8.155 14.7182 8.955 15.3582 9.905 15.3782C9.165 15.9582 8.225 16.3082 7.205 16.3082C7.025 16.3082 6.855 16.2982 6.685 16.2782C7.645 16.8982 8.795 17.2582 10.025 17.2582C14.035 17.2582 16.215 13.9382 16.215 11.0682C16.215 10.9682 16.215 10.8782 16.205 10.7882C16.645 10.4682 17.015 10.0882 17.305 9.64817Z" fill="#FFFAF0"></path><path fill-rule="evenodd" clip-rule="evenodd" d="M10.965 15.4682C10.585 15.4682 10.235 15.4382 9.88501 15.3882C9.14501 15.9582 8.21501 16.2982 7.21501 16.2982C7.03501 16.2982 6.86501 16.2882 6.69501 16.2682C7.65501 16.8882 8.80501 17.2482 10.035 17.2482C12.745 17.2482 14.615 15.7282 15.545 13.8582C14.415 14.8482 12.885 15.4682 10.965 15.4682Z" fill="#22a6b3" fill-opacity="0.9"></path></svg>